<?xml version="1.0" encoding="utf-8"?>
<!-- Generator: Adobe Illustrator 17.0.0, SVG Export Plug-In . SVG Version: 6.00 Build 0)  -->
<!DOCTYPE svg PUBLIC "-//W3C//DTD SVG 1.1//EN" "http://www.w3.org/Graphics/SVG/1.1/DTD/svg11.dtd">
<svg version="1.1" id="Layer_1" xmlns="http://www.w3.org/2000/svg" xmlns:xlink="http://www.w3.org/1999/xlink" x="0px" y="0px"
	 width="160px" height="160px" viewBox="45 45 160 160" enable-background="new 45 45 160 160" xml:space="preserve">
<g>
	<g>
		<path fill="#FFFFFF" d="M125,45c44.183,0,80,35.817,80,80s-35.817,80-80,80c-44.183,0-80-35.817-80-80S80.817,45,125,45"/>
		<path fill="#1D1D1B" d="M147.466,176.418c-1.319,0.601-0.503,2.491,0.852,2.007C149.544,177.986,148.873,175.778,147.466,176.418
			 M110.05,187.303c-1.491,0.426-0.851,2.485,0.594,2.114C111.932,189.086,111.496,186.89,110.05,187.303z M155.03,181.384
			c-0.288,0.14-0.389,0.056-0.547,0.512c-0.399,1.161,0.736,1.894,1.619,1.386C157.247,182.622,156.373,180.731,155.03,181.384z
			 M123.587,55.35l1.853,0.029c0.272-0.695,1.214-2.188,1.631-2.82l-2.444-0.016L123.587,55.35z M99.908,162.199
			c0.388-0.431,0.184-2.11,0.191-2.679c0.006-0.479,0.065-0.996-0.291-1.227c-0.315-0.203-0.854-0.167-1.11,0.106
			c-0.249,0.266-0.322,3.545-0.005,3.815C98.966,162.445,99.663,162.39,99.908,162.199z M98.528,163.782v3.589
			c0,1.261,1.569,1.249,1.569,0c0-4.199,0.421-4.835-1.381-4.457C98.574,163.158,98.528,163.396,98.528,163.782z M105.373,163.596
			c0.549,0.144,1.053,0.099,1.462-0.195c0.04-0.976,0.011-2.002,0.011-2.984c0-0.916,0.256-2.296-0.84-2.213
			c-0.99,0.075-0.719,1.334-0.719,2.325C105.287,161.414,105.156,162.865,105.373,163.596z M100.935,122.262l1.778-0.001
			l2.194-3.676l-3.181,0.006C101.514,119.239,100.957,121.564,100.935,122.262z M168.681,122.247l2.335,0.016
			c0.365-0.588,0.723-1.229,1.074-1.826c0.263-0.451,0.804-1.483,1.132-1.8l-3.185-0.054L168.681,122.247z M153.741,122.262h1.808
			c0.868-1.206,1.841-2.502,2.725-3.671l-1.777,0.006c-0.263,0.477-0.617,1.6-0.844,2.225l-0.194,0.482
			c-0.095,0.182-0.083,0.149-0.132,0.212c-0.394-0.642-0.789-2.139-1.142-2.905L151,118.59
			C151.723,119.322,153.009,121.489,153.741,122.262z M147.382,179.818c0.297,0.144,0.254,0.01,0.624-0.08l2.587,5.562
			c-0.506,0.339-0.392,0.231-0.439,0.462c0.407,0.217,2.708-1.123,2.708-1.124c0.001-0.002,0.322-0.167-0.096-0.246
			c-0.271-0.052-0.111,0.124-0.51,0.069c-0.454-0.741-0.959-2.04-1.362-2.903c-0.236-0.504-0.451-0.943-0.679-1.451l-0.636-1.376
			c-0.01-0.02-0.033-0.056-0.041-0.072c-0.008-0.016-0.025-0.049-0.042-0.071l-1.691,0.776
			C147.279,179.594,147.4,179.458,147.382,179.818z M137.662,183.378l-0.122-0.835c-0.148,0.015-2.053,0.389-2.203,0.49
			c-0.259,0.173-0.108-0.052-0.192,0.259c0.2,0.119-0.003,0.057,0.304,0.075c0.011,0.001,0.266-0.024,0.317-0.026l1.364,5.895
			c-0.299,0.353,0.038-0.045-0.241,0.169c-0.315,0.242-0.142-0.142-0.266,0.278c0.368,0.266,2.386-0.384,2.973-0.48
			c-0.26-0.645-0.586,0.039-0.783-0.831c-0.088-0.383-0.171-0.816-0.26-1.197c-0.19-0.808-0.427-1.677-0.577-2.462
			c-0.171-0.89,0.295-1.998,1.269-1.618c0.614,0.24,0.745,1.193,0.832,1.432c0.217,0.592-0.11,0.37,0.448,0.322
			c0.121-0.312-0.125-0.938-0.219-1.332c-0.096-0.407-0.171-1.296-0.419-1.491c-0.385-0.304-1.234-0.014-1.524,0.222
			C137.956,182.579,137.952,182.95,137.662,183.378z M114.066,167.482c0.158-0.54,0.258-7.996-0.042-8.709
			c-0.329-0.782-1.342-0.768-1.607,0.115c-0.136,0.451-0.262,7.998,0.088,8.804C112.872,168.543,113.801,168.391,114.066,167.482z
			 M131.874,183.63c0.247,0.379,0.028,0.035,0.642,0.259l-0.5,4.155c-0.498-0.626-1.213-2.966-1.65-3.883
			c0.074-0.074,0.208-0.144,0.215-0.151c0.2-0.195,0.102,0.036,0.209-0.268l-0.349-0.073c-0.052-0.002-0.303,0.029-0.376,0.04
			l-2.151,0.304c-0.34,0.134-0.194-0.025-0.307,0.29c0.028,0.015,0.075-0.013,0.091,0.022c0.061,0.14,0.346-0.165,0.65,0.38
			c0.119,0.216,0.247,0.566,0.383,0.848c0.526,1.088,1.951,4.466,2.374,5.019l1.15-0.143l0.967-6.693
			c0.065-0.012,0.417-0.133,0.42-0.135c0.29-0.176,0.165,0.035,0.247-0.307C133.669,183.179,132.094,183.28,131.874,183.63z
			 M161.806,176.708l-0.61,0.111c1.034,1.894,0.238,3.259-0.759,3.05c-0.788-0.165-2.235-1.923-2.441-2.744
			c0.509-0.48,2.379-1.455,2.794-1.907c-0.547-0.997-2.507-2.235-3.897-0.903c-1.146,1.097-1.175,2.913-0.238,4.396
			C159.175,182.707,163.73,180.018,161.806,176.708z M157.682,176.586c-1.265-1.677-0.146-3.604,1.561-1.03
			c-0.209,0.268-0.467,0.388-0.763,0.576C158.179,176.324,158.004,176.478,157.682,176.586z M145.347,180.483
			c-2.572-0.524-5.761,2.192-1.19,4.226c0.606,0.27,1.335,0.541,1.642,0.937c0.372,0.48,0.497,1.363-0.313,1.603
			c-0.799,0.236-1.362-0.385-1.628-0.781c-0.809-1.2-0.38-1.537-0.944-1.548c-0.191,0.191-0.125,0.005-0.089,0.334
			c0.006,0.06,0.818,2.604,1.065,2.828c0.634-0.322-0.142-0.376,0.715-0.353c1.081,0.028,2.102-0.191,2.867-0.964
			c1.145-1.155,0.329-2.354-1.164-3.087c-0.929-0.457-3.145-1.075-2.727-2.361c0.239-0.734,1.267-0.535,1.76-0.145
			c0.724,0.572,0.62,0.886,0.751,1.156c0.263,0.539-0.106,0.25,0.376,0.286c0.216-0.336,0.002-0.579-0.253-1.308
			c-0.132-0.378-0.263-0.948-0.502-1.209l-0.205,0.198c-0.014,0.015-0.04,0.045-0.053,0.061L145.347,180.483z M122.874,184.079
			l1.989,0.165l0.06,0.835c-1.578,0.509-3.146,1.242-3.474,3.153c-0.183,1.073,0.061,2.027,0.765,2.495
			c0.933,0.619,1.952-0.074,2.543-0.42c0.044,0.313,0.005,0.309,0.18,0.505l1.686,0.055c0.555-0.059,0.193,0.073,0.457-0.17
			c-0.167-0.281,0.08,0.007-0.178-0.158c-0.071-0.045-0.069-0.041-0.163-0.092l-0.188-0.087c0.044-1.421,0.296-3.982,0.169-5.263
			c-0.141-1.412-1.6-1.232-2.794-1.287C123.403,183.784,122.961,183.634,122.874,184.079z M124.888,185.525
			c-0.017,0.974-0.07,1.952-0.097,2.929c-0.028,1.065,0.036,1.764-1.131,1.588C123.011,188.607,123.643,185.974,124.888,185.525z
			 M162.635,170.39c0.031,0.02,0.128,0.052,0.15,0.052c0.294,0.014,0.224-0.04,0.356-0.065c0.398-0.072,1.411,1.407,1.942,1.929
			c0.515,0.508,0.673,0.798,1.126,1.228c1.514,1.438,0.476,2.522-0.682,1.245l-1.162-1.305c-0.741-0.907-1.568-1.734-2.317-2.6
			c-0.533,0.328-0.746,0.691-1.24,1.074c-0.617,0.478-0.523,0.291-0.493,0.566c0.035,0.334,0.398,0.039,0.398,0.039
			c0.81-0.436-0.432,0.099,0.223-0.131c0.404,0.343,0.457,0.469,0.743,0.819l2.228,2.483c0.449,0.464,1.052,1.251,2.017,1.008
			c0.83-0.209,1.216-0.831,1.447-1.628c0.024-0.01,0.063-0.039,0.073-0.017l0.275-0.08c0.281-0.123,1.628-1.41,1.645-1.454
			c0.192-0.52-0.182-0.094-0.722,0.022l-1.541-1.835c-0.906-0.981-1.812-1.918-2.689-3.005
			C164.093,168.964,162.768,170.103,162.635,170.39z M114.275,183.07c0.113,0.316-0.011,0.062,0.215,0.237l0.329,0.212l-0.83,5.893
			c-0.171,0.067-0.361,0.08-0.367,0.083c-0.295,0.124-0.102-0.121-0.271,0.191c0.256,0.262,2.615,0.585,2.921,0.448
			c-0.038-0.408,0.103-0.118-0.284-0.365l-0.173-0.083c0.165-1.162,0.329-2.335,0.49-3.485c0.167-1.195,0.016-2.809,1.485-2.172
			c0.188,1.074-0.627,4.855-0.741,6.33c0.671,0.053,1.891,0.452,2.413,0.224c-0.058-0.276,0.066-0.124-0.254-0.337l-0.262-0.112
			c0.202-1.591,0.458-3.181,0.664-4.752c0.273-2.082-1.218-2.514-2.858-1.765c-0.29-0.579-0.449-0.412-1.761-0.6
			C114.476,182.944,114.462,182.95,114.275,183.07z M101.424,179.367c0.074,0.286-0.025,0.07,0.176,0.25l0.304,0.2l-0.259,6.783
			l1.191,0.414l2.189-3.461l-0.299,4.144l1.166,0.356c0.104-0.256,3.542-5.18,3.763-5.356c0.327-0.261,0.268-0.04,0.673-0.134
			c0.382-0.088-0.083,0.216,0.194-0.093c-0.083-0.294-1.633-0.831-1.927-0.633c0.107,0.444,0.014,0.052,0.425,0.448
			c-0.115,0.441-2.042,3.147-2.378,3.473l0.519-4.115c0.539-0.035,0.314,0.191,0.59-0.124c-0.178-0.349-0.853-0.463-1.291-0.607
			c-0.508-0.168-0.969-0.372-1.492-0.466c0.037,0.747,0.359,0.151,0.245,1.283c-0.057,0.556-0.235,0.747-0.462,1.12
			c-0.324,0.531-0.832,1.443-1.207,1.889l0.317-4.135c0.366-0.225,0.418-0.104,0.511-0.336c-0.318-0.286-0.984-0.42-1.417-0.562
			l-1.176-0.4C101.28,179.238,101.621,179.164,101.424,179.367z M139.167,70.38c0.02,0.074,0.034,0.285,0.063,0.356
			c0.137,0.341-0.079,0.178,0.286,0.35c0.319-0.353,1.064-4.05,1.229-4.771c0.009-0.037,0.066-0.339,0.067-0.358
			c0.006-0.316,0.037-0.124-0.062-0.317c-0.546,0.102-0.143,0.02-0.713,1.213c-1.636,3.427-5.382,6.479-3.411-2.406
			c0.357-1.608,1.123-5.063,2.113-5.732c2.463-1.662,2.035,4.734,2.348,5.108c0.354-0.063,0.16,0.294,0.472-1.059
			c0.097-0.421,0.196-0.858,0.293-1.276c0.105-0.446,0.19-0.826,0.294-1.275c0.092-0.396,0.314-0.997,0.174-1.32
			c-0.704-0.155-0.131,0.116-0.673,0.555c-0.417-0.327-0.443-1.128-1.875-1.446c-2.499-0.557-4.676,2.383-5.409,4.865
			c-0.764,2.586-0.452,6.694,2.019,7.724C137.864,71.21,138.196,70.404,139.167,70.38z M160.362,66.362l-2.033-1.081
			c-0.292,1.769-0.57,2.314-1.543,3.184c-0.685,0.611-2.095,2.336-2.79,3.043l-1.693,1.781c-0.474,0.422-0.696,0.822-1.132,1.226
			c-0.743,0.691-0.984-0.063-1.456,0.118c-0.215,0.42-0.086,0.33,0.342,0.557l1.447,0.802c0.268,0.16,0.295,0.212,0.579,0.241
			l0.134-0.019c0.206-0.447-0.263-0.4-0.596-0.795c0.08-0.419,2.065-2.464,2.361-2.683c0.474,0.174,1.828,0.931,2.116,1.226
			c-0.109,0.595-0.31,1.192-0.461,1.772c-0.552,2.114-0.484,1.67-0.491,1.653c-0.007-0.016-0.028,0.051-0.044,0.075
			c-0.186-0.091-0.7-0.491-0.754-0.115c-0.043,0.306-0.072,0.073,0.103,0.263c0.02,0.022,2.939,1.689,3.176,1.736
			c0.195,0.04,0.011,0.065,0.166-0.019c0.261-0.376-0.129-0.444-0.581-0.642L160.362,66.362z M154.409,72.277
			c0.104-0.231,2.753-3.08,3.024-3.261c-0.109,0.643-0.966,3.897-1.22,4.301L154.409,72.277z M169.443,90.443
			c1.116-1.935,6.53-9.236,7.093-10.429l-1.473-1.671c-1.019,0.823-0.088,1.114-2.317,2.269l-6.002,3.078
			c-2.838,1.472-2.041,0.908-2.983,0.405l-0.255,0.158c0.125,0.263,1.657,2.081,1.809,2.155c0.832,0.407,0.021-0.624-0.074-0.9
			c0.257-0.347,2.685-1.592,3.248-1.723c0.229,0.427,0.362,0.53,0.745,0.938c0.27,0.289,0.434,0.537,0.727,0.898
			c-0.285,0.642-1.576,2.179-2.027,3.041c-0.358-0.198-0.412-0.653-0.902-0.313c0.162,0.316,1.583,1.862,2.03,2.376
			c0.387,0.444,0.445,0.832,0.746,0.523c0.194-0.2-0.154-0.501-0.223-0.592C169.426,90.45,169.578,90.74,169.443,90.443z
			 M172.895,81.495l-2.565,3.642c-0.378-0.407-1.198-1.198-1.423-1.659L172.895,81.495z M162.243,73.249
			c-0.177,0.218-0.982,1.029-0.406,1.112c0.484,0.07,2.372-3.943,5.126-2.636c-0.162,0.313-6.877,8.911-7.15,9.159
			c-0.4-0.136-0.271-0.227-0.665-0.399l-0.178,0.315c0.39,0.425,1.12,0.901,1.587,1.276c0.613,0.493,1.232,1.137,1.634,1.01
			c0.047-0.41-0.216-0.407-0.485-0.716c0.311-0.546,6.825-8.8,7.164-9.157c0.698,0.995,0.794,1.844,0.198,3.158
			c-0.581,1.283-1.411,1.974-1.569,2.552c0.448,0.154,0.327,0.232,1.051-0.712c0.68-0.886,2.334-2.898,2.741-3.579
			c-0.328-0.371-1.093-0.925-1.561-1.281l-3.152-2.456c-0.412-0.335-1.159-0.968-1.597-1.182L162.243,73.249z M105.986,59.943
			c-1.518-0.125-2.219-0.297-3.401,0.52c-0.804,0.556-1.451,1.6-1.124,3.02c0.673,2.922,5.236,3.86,6.638,6.01
			c1.553,2.383-2.18,4.563-4.156-0.891c-0.091-0.25-0.166-0.487-0.246-0.762c-0.179-0.615-0.061-0.615-0.514-0.588
			c-0.246,0.372,1.596,5.581,1.774,5.761c0.227-0.093,0.227-0.078,0.391-0.383c0.013-0.025,0.029-0.068,0.04-0.088
			c0.01-0.021,0.022-0.063,0.038-0.092c1.417,0.022,2.328,0.169,3.445-0.542c0.742-0.472,1.513-1.352,1.513-2.659
			c0-2.982-4.228-4.021-6.292-5.954c-0.42-0.392-1.744-2.001-0.608-2.715c1.117-0.702,2.315,0.31,2.839,0.93
			c0.599,0.71,0.996,1.736,1.312,2.802l0.476-0.116l-1.556-4.838c-0.458,0.108-0.331,0.056-0.508,0.419L105.986,59.943z
			 M82.38,73.96c0.902,7.159,10.876,10.64,10.272,3.586c-0.252-2.944-2.537-5.504-4.295-6.591
			C85.458,69.161,81.857,69.804,82.38,73.96z M84.261,70.692c0.567-0.243,1.233,0.31,1.544,0.575l1.174,1.176
			c0.821,1.001,5.779,6.409,4.513,7.765c-1.321,1.416-2.476-0.411-3.386-1.266c-0.385-0.362-0.769-0.845-1.092-1.263
			c-0.351-0.454-0.662-0.808-0.998-1.242c-0.642-0.828-1.33-1.771-1.946-2.765C83.38,72.56,82.672,71.374,84.261,70.692z
			 M91.334,66.013l5.031,10.414c-0.173,0.137-0.211,0.127-0.356,0.23l-0.197,0.16c-0.01-0.02-0.043,0.037-0.061,0.059
			c0.294,0.43,0.251,0.256,0.871-0.051l2.511-1.197c0.407-0.29,0.169,0.11,0.281-0.439c-0.449-0.136-0.43,0.052-0.933,0.215
			l-2.644-5.481c1.393-1.092,1.542-0.349,2.136,0.832c1.127,2.241,1.605,4.662,4.019,3.811c0.784-0.276,2.322-1.326,1.406-2.155
			c-0.182,0.293-0.033,0.208-0.169,0.586c-0.075,0.211-0.094,0.292-0.342,0.448c-1.926,1.204-2.104-5.361-4.861-5.234
			c1.774-2.263-0.068-4.806-2.01-4.723c-0.994,0.042-5.306,2.213-5.575,2.51l0.127,0.302L91.334,66.013z M93.442,64.988
			c0.393-0.313,1.423-0.891,1.943-0.505c0.311,0.232,0.735,1.276,0.957,1.738c0.883,1.835,1.497,2.38-0.826,3.136L93.442,64.988z
			 M149.571,61.4c-0.163-0.149-3.131-1.49-3.522-1.233c0.257,0.753,0.043,0.119,0.65,0.572l-4.203,10.812
			c-0.56-0.263-0.617-0.389-0.831,0.053l1.785,0.775c0.304,0.119,0.591,0.225,0.888,0.348c0.887,0.364,0.735,0.223,0.877,0.139
			c-0.06-0.456,0.068-0.125-0.211-0.364c-0.019-0.016-0.271-0.131-0.29-0.142l2.226-5.891l1.99,0.765l-2.213,5.891
			c-0.6-0.143-0.527-0.331-0.768,0.061c0.149,0.352,2.029,0.912,2.686,1.185c0.855,0.353,0.699,0.24,0.862,0.147
			c-0.027-0.502-0.121-0.268-0.628-0.574l4.108-10.793c0.268,0.044,1.254,0.394,0.79-0.173c-0.056-0.068-3.062-1.361-3.391-1.243
			c-0.223,0.486-0.067,0.271,0.443,0.575l-1.66,4.413l-2.011-0.709l1.715-4.464C149.458,61.658,149.381,61.904,149.571,61.4z
			 M77.709,76.446c0.2-0.537,0.356-0.3,0.442-0.778c-0.452-0.258-0.461-0.042-0.821,0.358l-1.998,2.137l0.171,0.263
			c0.34-0.124,0.209-0.16,0.543-0.349c0.485,0.272,1.116,1.075,1.739,1.657c0.473,0.443,1.377,1.114,1.648,1.64l-1.335,1.444
			c-0.426-0.159-0.641-0.434-0.93-0.784c-0.563-0.68-1.839-1.687-2.554-2.46c0.089-0.146,0.324-0.367,0.252-0.622l-0.248-0.02
			c-0.351,0.072-2.404,2.472-2.465,2.62c0.416,0.257,0.498-0.017,0.716-0.325c0.351,0.181,6.077,5.649,6.381,6.012
			c0.446,0.532,1.576,1.63,2.07,1.958c-0.072,0.148-0.759,0.856-0.211,0.839c0.359-0.011,1.623-1.595,1.928-1.911
			c0.299-0.31,0.503-0.338,0.642-0.73c-0.457-0.252-0.265-0.2-0.7,0.204c-1.392-1.2-3.076-2.951-4.549-4.342
			c0.268-0.423,1-1.238,1.429-1.493c0.187,0.094,3.26,3.028,3.437,3.224c0.442,0.49,0.602,0.673,1.06,1.081
			c-0.234,0.464-0.399,0.232-0.262,0.696c0.398,0.11,0.477-0.152,0.787-0.495c0.256-0.283,0.442-0.478,0.702-0.758
			c0.862-0.925,1.34-1.083,1.161-1.506c-0.271-0.084-0.404,0.119-0.406,0.119c-0.204,0.143,0.029,0.07-0.313,0.244
			c-0.723-0.695-1.396-1.309-2.136-1.996c-0.381-0.353-0.613-0.667-0.984-1.031c-0.361-0.353-0.673-0.627-1.046-0.974
			C81.004,79.579,78.362,76.863,77.709,76.446z M85.086,168.786c-0.15,0.948,1.059-1.265-0.835,3.313
			c-0.479,1.161-0.943,2.338-1.43,3.474c0.332,0.385,0.587,0.496,0.946,0.853c0.437-0.198,2.419-1.896,3.257-2.459l-1.672,3.704
			c0.29,0.32,0.574,0.531,0.898,0.71c0.433-0.201,2.665-1.814,3.28-2.235c0.579-0.395,1.047-0.724,1.664-1.141
			c0.678-0.459,0.673-0.299,1.145-0.193c0.287,0.065,0.157,0.016,0.223,0.025c0.355,0.047,0.142-0.038,0.493,0.182l-1.577,6.728
			l1.051,0.55c0.529-0.26,2.416-2.576,2.886-2.924l-1.084,3.917l0.984,0.61c0.55-0.405,0.86-0.734,1.352-1.287l2.759-2.623
			c1.52-1.367,1.001-0.17,1.578-0.655c-0.064-0.385-0.961-0.782-1.33-0.957c-0.434-0.206-0.205-0.221-0.486,0.014
			c0.133,0.482,0.18,0.019,0.368,0.53c-0.394,0.461-2.465,2.614-2.997,2.923l1.299-3.978c0.536,0.048,0.16,0.291,0.581,0.034
			c-0.022-0.191,0.043-0.223-0.465-0.498c-0.512-0.278-1.618-1.006-2.063-1.062c-0.016,0.443,0.556,0.885-0.607,2.219
			c-0.316,0.362-0.42,0.51-0.814,0.865c-0.314,0.282-0.475,0.562-0.798,0.812l1.143-4.068c0.295-0.024,0.525,0.189,0.523-0.161
			c-0.002-0.238-1.727-1.092-1.947-1.223c-0.103-0.062-0.173-0.12-0.282-0.177c-0.89-0.463,0.323,0.659-1.48-0.751
			c-0.335-0.262-0.272-0.368-0.638-0.379c-0.22,0.698,0.022-0.017,0.2,0.779c-0.898,0.484-2.672,1.977-3.418,2.307l1.872-3.659
			c0.47-0.002,0.164,0.254,0.607,0.07c-0.01-0.479,0.012-0.267-0.418-0.575c-0.538-0.385-1.335-1.161-1.777-1.398
			c-0.232,0.372,0.368,1.022-0.885,2.025c-0.552,0.442-1.379,1.147-1.953,1.487l1.734-3.832c0.205,0.005,0.762,0.346,0.498-0.163
			l-1.886-1.599c-0.101-0.077-0.055-0.105-0.268-0.148L85.086,168.786z M120.069,68.735l-3.496-7.659l-0.823,0.122
			c0.143-0.706,0.494-1.598,0.73-2.315c0.45-1.375,0.28-1.22,0.813-1.429c0.456-0.179,0.324,0.051,0.427-0.261
			c-0.169-0.269,0.344-0.344-1.189-0.06c-0.439,0.081-0.963,0.09-1.209,0.342c0.227,0.555,0.127,0.065,0.638,0.336l-1.716,5.061
			l-0.891-4.753c0.13-0.017,0.277-0.011,0.395-0.052c0.313-0.106,0.229-0.011,0.367-0.256c-0.124-0.207,0.121-0.295-0.921-0.092
			c-0.367,0.071-0.7,0.127-1.051,0.19c-0.358,0.065-0.713,0.128-1.047,0.18c-1.213,0.185-0.867,0.124-0.847,0.508l0.834-0.005
			l2.002,11.433c-0.656,0.097-0.79-0.044-0.754,0.459c0.313,0.171,1.489-0.161,1.934-0.237c0.328-0.056,0.722-0.133,1.056-0.184
			c0.125-0.019,0.389-0.047,0.475-0.071c0.671-0.191,0.265,0.083,0.389-0.292c-0.223-0.397-0.234-0.061-0.826-0.173
			c-0.185-1.114-0.379-2.141-0.57-3.25c-0.225-1.31-0.505-1.916,0.167-3.091c0.02,0.02,0.044,0.027,0.051,0.065l2.531,5.891
			c-0.025,0.016-0.068-0.001-0.08,0.034c-0.012,0.034-0.061,0.025-0.079,0.034c-0.488,0.241-0.357,0.106-0.443,0.38
			c0.227,0.157-0.055,0.057,0.279,0.1c0.379,0.047,1.986-0.357,2.585-0.416c1.036-0.103,2.951,0.245,3.352-0.132
			c-0.169-0.452,0.168-0.119-0.437-0.274c-0.367-0.094-0.144,0.074-0.509-0.15c-0.096-0.412,0.637-2.974,0.836-3.468l2.381,0.04
			c0.236,0.437,0.786,3.002,0.903,3.657c-0.216-0.003-0.497-0.058-0.685,0.041c-0.093,0.049-0.113-0.181-0.113,0.159
			c0,0.382-0.039,0.075,0.114,0.166c0.149,0.089,3.418,0.146,3.654,0.077c0.327-0.096,0.032,0.066,0.264-0.136
			c-0.155-0.376,0.215-0.158-0.858-0.289l-2.969-12.301l-2.293-0.041c0.277,1.883,0.67,1.411,0.128,3.406
			c-0.35,1.289-1.943,7.503-2.209,8.228c-0.146,0.398-0.128,0.439-0.444,0.479C120.914,68.733,120.086,68.737,120.069,68.735z
			 M124.373,60.377l0.97,4.367l-2.179-0.049L124.373,60.377z M174.426,151.57l-2.024-0.037l0.007-26.871
			c0.392-0.002,1.713-0.076,1.992,0.043l0.047-1.078h-9.398v1.026l1.982-0.001l0.011,26.912h-1.988v1.024h9.377L174.426,151.57z
			 M98.259,123.195c0.251,1.216,0.677,2.572,0.997,3.808c0.261,1.008,0.305,0.868,0.033,1.938l-2.339,9.435
			c-0.624,2.522-1.231,5-1.862,7.549c-1.326,5.357-0.879,5.608-3.812,5.639l-0.007,1.025h6.916l-0.007-1.025
			c-0.86-0.008-1.714,0.09-2.272-0.319c-0.092-0.718,1.497-7.084,1.828-8.054l5.449-0.009c0.434,0,1.069,3.289,1.274,4.078
			c0.362,1.393,0.787,2.912,1.066,4.297l-1.853,0.042l-0.002,0.96c1.023,0.075,8.535,0.089,9.346-0.011l-0.003-0.972
			c-2.496-0.013-1.929,0.34-2.452-1.668l-3.222-12.476c-1.051-4.099-2.849-10.431-3.673-14.247L98.259,123.195z M100.578,131.742
			c0.398,0.859,0.997,3.898,1.288,5.094c0.403,1.662,0.914,3.419,1.228,5.084l-5.059-0.025L100.578,131.742z M149.409,152.59
			c0.088-1.155,0.323-1.026,1.24-0.615c4.368,1.953,9.061,1.907,11.78-2.284c3.293-5.079-2.035-10.518-4.079-12.933
			c-0.209-0.247-0.396-0.377-0.604-0.624l-1.65-1.943c-0.73-0.919-1.344-1.661-2.02-2.689c-0.965-1.465-2.708-5.362-0.817-6.903
			c0.97-0.79,2.888-0.501,3.837,0.182c3.255,2.343,3.484,6.766,3.484,10.667h1.177v-11.821h-1.18
			c-0.012,0.41-0.07,0.718-0.219,0.992c-0.561-0.014-1.213-0.456-1.722-0.708c-3.982-1.976-9.442-1.031-10.807,3.891
			c-1.615,5.825,4.095,10.27,6.949,14.099c1.015,1.363,2.038,2.532,2.784,4.28c1.085,2.549,0.551,5.995-2.575,5.808
			c-1.505-0.09-2.617-0.788-3.23-1.574c-0.742-0.949-1.2-1.639-1.645-3.065c-0.826-2.652-0.708-5.794-0.708-8.7h-1.145
			l-0.002,13.937h1.15V152.59L149.409,152.59z M88.242,139.348c-0.347-0.322-1.93-3.262-2.318-3.946
			c-0.666-1.176-6.517-11.692-6.85-11.774h-5.945l0.008,1.026l1.944-0.001l0.011,25.224c0,1.839-0.273,1.689-1.957,1.689
			l0.011,1.024h5.869l-0.008-1.015c-1.78-0.083-1.982,0.261-1.982-1.81c-0.001-3.112-0.136-14.621,0.028-16.817
			c0.333,0.324,2.415,4.19,2.884,4.965c0.986,1.629,1.856,3.278,2.803,4.935l4.23,7.431c1.641,2.831,0.724,2.311,3.213,2.311V126.44
			c0-2.032,0.234-1.631,1.868-1.818l0.001-0.969c-0.952-0.056-4.963-0.082-5.76,0.017v0.943c1.965,0.301,1.955-0.333,1.952,2.276
			L88.242,139.348z M116.908,133.905c-0.381-1.528-0.817-3.063-1.211-4.621c-0.321-1.27-1.029-3.402-1.18-4.627l1.807-0.002
			l-0.021-1.026h-9.565l0.005,1.026l1.943,0.002l7.827,27.934h2.62c0.204-1.244,0.615-2.66,0.907-3.913l4.495-19.055
			c0.276-1.141,0.545-2.7,0.923-3.781c0.247-0.705,0.422-0.992,1.232-1.127c0.637-0.106,1.628-0.061,2.316-0.061l0.01,26.912h-1.837
			l0.013,1.024c1.527,0.002,8.152,0.101,9.136-0.052l-0.003-0.957l-1.948-0.038l0.01-14.197c3.352-0.126,3.602-0.082,3.598,2.328
			c-0.003,2.729-0.306,9.529,0.528,11.203c0.849,1.704,2.881,2.659,5.49,2.493c1.748-0.11,5.081-1.4,3.36-3.382
			c-0.535,2.486-2.962,2.15-3.565,1.21c-0.7-1.092-0.492-4.026-0.492-5.581c0-3.637,0.848-8.501-2.663-9.534
			c0.496-0.366,1.278-0.601,1.858-1.047c3.577-2.756,3.539-11.406-4.446-11.408l-16.853,0.001v1.026
			c0.955,0.005,1.606-0.09,2.245,0.345c0.19,0.923-1.612,7.805-1.951,9.221c-0.295,1.231-1.888,8.36-2.141,8.912
			C119.015,142.203,117.278,135.385,116.908,133.905z M134.386,124.675c5.557-0.416,4.835,0.723,4.835,5.69
			c0,1.268,0.227,4.025-0.398,4.914c-0.701,0.997-3.038,0.886-4.445,0.715L134.386,124.675z M199.285,127.208v-4.857
			c-0.268-0.628-0.273-3.36-0.356-4.323c-1.25-14.428-7.07-28.149-15.864-39.288l-2.096-2.498c-0.768-0.944-1.511-1.63-2.198-2.402
			c-1.318-1.48-3.155-3.14-4.66-4.533c-0.342-0.317-0.834-0.704-1.218-1.029l-2.54-2.056c-0.445-0.346-0.877-0.683-1.336-1.018
			c-0.872-0.634-1.775-1.27-2.705-1.895c-21.358-14.369-49.029-16.647-72.614-5.676c-6.516,3.031-12.17,6.775-17.43,11.284
			l-3.038,2.791l-5.53,6.017c-0.677,0.773-1.407,1.731-2.026,2.575c-3.347,4.563-6.246,9.158-8.543,14.444
			c-21.675,49.871,14.287,103.88,66.796,104.515c15.563,0.188,30.499-4.436,42.554-12.66c1.662-1.133,5.051-3.61,6.503-4.935
			l2.485-2.221c0.877-0.745,2.865-2.722,3.508-3.445c1.608-1.805,2.65-2.911,4.256-4.941c3.455-4.371,6.225-8.819,8.818-14.176
			c2.04-4.216,3.649-8.592,4.905-13.48c0.629-2.451,1.14-5.054,1.524-7.667c0.203-1.376,0.358-2.734,0.478-4.135
			C199.034,130.732,199.086,127.722,199.285,127.208z M52.078,116.969c-0.172-1.011,0.871-6.294,1.147-7.527
			c1.543-6.936,3.675-12.77,6.954-18.938c2.064-3.882,4.362-7.389,6.792-10.479c0.55-0.7,2.829-3.546,3.459-4.17
			c0.258-0.255,0.299-0.267,0.503-0.504c1.443-1.679,3.375-3.352,4.879-4.877c0.224-0.227,0.374-0.308,0.615-0.51
			C82.905,64.519,87.918,61,96.286,57.419c22.655-9.696,48.313-7.094,68.801,6.109c1.785,1.15,3.442,2.375,5.036,3.6
			c2.008,1.543,5.126,4.3,6.903,6.104l3.136,3.365c3.597,3.982,6.991,9.17,9.659,14.008c3.122,5.662,5.516,12.473,6.931,18.984
			c0.293,1.348,1.258,6.156,1.132,7.374c-5.935,0.142-12.041,0.002-17.996,0.006c-1.696,0.001-1.587,0.174-1.704-0.589
			c-1.334-8.656-4.961-16.917-10.047-23.715l-2.489-3.122l-1.06-1.183c-4.275-4.177-5.187-5.233-10.432-8.741
			c-5.416-3.622-12.618-6.444-19.252-7.667c-9.52-1.756-18.559-0.975-27.628,2.063c-0.492,0.164-1.168,0.545-1.603,0.377
			c-0.545-0.209-0.93-0.619-1.479-0.744c-1.236,1.454-0.594,1.79-2.26,2.541c-1.066,0.481-2.059,1.044-3.106,1.601
			c-5.131,2.726-11.932,8.281-15.529,12.953c-5.467,7.102-8.839,13.183-10.909,22.292c-0.252,1.114-0.446,2.937-0.777,3.935
			L52.078,116.969z M79.55,112.984c0.238-0.594,1.145-1.848,1.533-2.478c0.498-0.805,1.038-1.597,1.528-2.397
			c2.936-4.787,6.39-9.845,9.295-14.589c1.999-3.266,4.162-6.471,6.196-9.727c1.036-1.658,2.054-3.216,3.098-4.865
			c0.551-0.868,1.03-1.614,1.571-2.466c0.462-0.731,1.005-1.745,1.535-2.37c0.544,0.158,11.624,6.149,12.292,6.524
			c4.032,2.265,8.227,4.368,12.277,6.566c2.046,1.11,4.074,2.212,6.136,3.285c1.886,0.982,1.258,0.832,3.59,0.411
			c1.326-0.24,2.654-0.466,4-0.706l12.017-2.126c1.071-0.187,3.028-0.426,3.942-0.693c0.24,0.416,1.929,6.913,2.208,7.966
			l4.311,15.983c0.295,1.131,1.085,1.388,2.56,2.492c0.518,0.388,0.967,0.723,1.475,1.104c0.517,0.387,1.023,0.687,1.391,1.1
			c-1.14-0.244-2.807-1.002-3.986-1.42c-1.177-0.418-1.423-0.342-1.802-0.89c-0.309-0.448-0.957-1.144-1.126-1.582l1.535-0.006
			l-6.682-24.441l-0.005,9.067c-0.272-0.146-0.151,0.118-0.205-0.44c-0.08-0.814,0.065-7.041-0.008-8.559
			c-0.475,0.66-1.512,3.211-1.922,4.144c-0.506,1.149-5.448,12.1-5.609,12.194l-4.627,0.672c0.533,0.368,1.08,0.804,1.628,1.188
			c0.562,0.394,1.118,0.769,1.716,1.201c0.588,0.425,3.01,2.057,3.298,2.373c-0.745-0.12-9.814-3.547-11.42-4.119
			c-2.064-0.736-1.857-0.789-3.253-1.906c-1.917-1.533-3.748-3.124-5.636-4.683l-22.551-18.824
			c-0.443-0.368-5.299-4.469-5.657-4.667c-0.537,0.549-1.126,1.657-1.563,2.368c-0.483,0.786-0.981,1.544-1.482,2.33l-8.968,14.133
			c-3.411,5.296-7.075,11.397-10.5,16.524c-0.375,0.561-1.227,1.821-1.435,2.363L79.55,112.984z M103.81,103.788
			c0.317-0.858-0.446,0.669,0.218-0.281c0.15-0.214,0.033,0.226,0.154-0.294l0.012-6.265c0.013-1.732-0.139-0.849-0.355-1.473
			c-0.079-0.228-0.042-4.815,0.013-5.231l0.577,0.376c0.088,3.151,0.011,6.416,0.011,9.58c0,2.366,0.076,6.026,0.018,8.313
			c-0.017,0.69,0.05,0.539-0.647,0.619C103.81,109.132,103.81,103.788,103.81,103.788z M102.865,89.438
			c0.889,0.429,0.616,1.565,0.616,3.248c0,2.556,0.349,3.133-0.624,3.271L102.865,89.438z M101.898,88.655l0.61,0.403l0.044,6.986
			l-1.609,0.335l-0.006-6.273c0-0.679,0.349-0.874,0.617-1.305c0.009,0.355-0.044,6.945,0.034,7.134
			c0.15,0.363-0.098,0.135,0.299,0.305L101.898,88.655z M99.967,94.593c0-1.883-0.281-3.298,0.623-4.252l0.002,5.935
			c-0.053,0.362-0.037,0.002-0.268,0.278c-0.127,0.153-0.096-0.218-0.168,0.387l0.007,7.184c0.226,0.499,0.058,0.07,0.237,0.189
			c0.188,0.124,0.052-0.137,0.191,0.148c0,1.082,0.202,4.482-0.081,5.225l-0.544,0.034V94.593z M112.909,94.374l-0.001,3.236
			l-1.264,0.197l-0.005-3.199L112.909,94.374z M109.861,95.153c0.215-0.302,0.191-0.217,0.633-0.314
			c0.235-0.052,0.394-0.081,0.628-0.097l-0.014,3.249l-1.246,0.259L109.861,95.153L109.861,95.153z M102.45,99.812
			c-0.037-0.799-0.005-1.621-0.018-2.424c-0.01-0.584-0.13-0.731,0.299-0.89c0.134-0.05,0.796-0.155,0.97-0.163l-0.025,3.249
			L102.45,99.812z M101.917,96.737l0.002,3.23l-1.267,0.204l-0.001-3.199L101.917,96.737z M111.644,98.214
			c0.285-0.154,0.84-0.266,1.258-0.309l0.012,3.201l-1.271,0.187V98.214z M111.124,98.304c0,0.893,0.17,2.425-0.058,3.191
			l-1.205,0.242l0.017-3.208L111.124,98.304z M154.736,99.364c0.46,0.155,0.871,0.432,1.23,0.637l0.022,2.607l-1.202-0.626
			L154.736,99.364z M108.617,94.18c0.237,0.135,0.587,0.347,0.76,0.637v7.289c0,0.243-0.146,0.303-0.139,1.457l-0.003,4.711
			l-0.619,0.051L108.617,94.18z M157.738,103.463c-1.177-0.385-1.218-0.525-1.24-1.012c-0.03-0.682-0.014-1.439-0.002-2.166
			l1.197,0.592L157.738,103.463z M103.704,99.907l-0.018,3.172l-1.249,0.218l0.016-3.168L103.704,99.907z M100.653,103.655
			c0-0.82-0.001-1.637-0.009-2.456c-0.006-0.574-0.235-0.789,1.267-0.933l0.006,3.165
			C101.586,103.543,101.067,103.691,100.653,103.655z M158.247,101.206l1.195,0.664l0.02,2.544l-1.204-0.61L158.247,101.206z
			 M154.793,102.242c0.347,0.118,0.934,0.387,1.216,0.649l0.022,2.614l-1.206-0.657L154.793,102.242z M152.631,110.523
			c0.464,0.154,0.702,0.097,0.759,0.555c-0.441,0.269-3.672-0.97-4.378-1.199c-1.611-0.521-12.237-3.928-12.864-4.271l0.809-0.01
			l0.092-0.432c1.326,0.366,2.83,0.949,4.161,1.416L152.631,110.523z M156.563,103.151c0.385,0.166,0.91,0.423,1.189,0.643
			l0.02,2.584l-1.198-0.58L156.563,103.151z M122.073,105.167c0.41,0.219,0.69,0.281,0.575,0.938l-0.578,0.01L122.073,105.167z
			 M121.147,104.373c0.781,0.484,0.642,0.741,0.579,1.871l-0.597,0.088L121.147,104.373z M120.166,103.577l0.609,0.444l0.004,2.38
			l-0.628,0.048L120.166,103.577z M119.231,102.819l0.57,0.364c0.035,0.687,0.016,1.375,0.019,2.063
			c0.007,1.572,0.092,1.3-0.631,1.394L119.231,102.819z M118.242,102.021c0.834,0.426,0.616,0.898,0.615,1.992
			c-0.001,0.889,0.003,1.778,0.001,2.681l-0.626,0.086L118.242,102.021z M158.288,104.032l1.192,0.653l0.034,2.573l-1.214-0.624
			L158.288,104.032z M117.278,101.249l0.603,0.382l0.015,0.475l0.013,4.375l-0.078,0.398l-0.563,0.065L117.278,101.249z
			 M116.335,100.456c0.513,0.32,0.613,0.372,0.609,1.195c-0.006,1.038,0.1,4.957-0.078,5.372l-0.555,0.073L116.335,100.456z
			 M115.349,99.678l0.617,0.402l0.002,7.115l-0.625,0.022L115.349,99.678z M163.097,112.603c-0.142-0.474,0.165-0.144-0.369-0.412
			l-1.254-0.423c-0.597-0.217-1.124-0.397-1.734-0.62l-6.859-2.448c-2.157-0.787-1.164-0.415-2.9-1.631l13.153,5.155
			c0.043,2.308,0.162,2.115-1.022,1.712c-0.412-0.141-0.782-0.241-1.192-0.378c-1.961-0.658-5.441-1.817-7.23-2.303
			c-0.129-0.789,0.138-0.606-0.7-0.871l-2.762-0.945c-0.394-0.155-0.193-0.01-0.419-0.254c0.979,0.233,5.34,1.777,6.646,2.222
			c1.133,0.385,2.231,0.759,3.356,1.13c0.448,0.148,2.83,1.175,3.28,0.897c-0.167-0.255,0.148-0.029-0.328-0.259l-1.015-0.331
			c-0.479-0.155-0.875-0.293-1.344-0.452c-2.343-0.792-5.826-1.607-7.579-3.313C154.641,109.47,162.18,112.661,163.097,112.603z
			 M114.431,98.892c0.758,0.613,0.592,0.314,0.586,1.644c-0.008,1.7,0.101,5.567-0.022,6.779l-0.605,0.109L114.431,98.892z
			 M113.411,98.076c0.826,0.457,0.639,0.785,0.637,1.9l-0.002,7.507l-0.616,0.07L113.411,98.076z M136.263,107.831
			c-0.35-0.182-0.399-0.166-0.437-0.537l0.734,0.169L136.263,107.831z M112.463,107.728c0-1.127,0-2.253,0-3.379
			c0-2.78-0.293-2.627,0.63-2.766c0,1.062,0.134,5.393-0.082,6.078L112.463,107.728z M112.129,101.804l-0.017,5.99l-0.608,0.064
			l-0.046-5.95L112.129,101.804z M110.555,108.037c-0.056-1.085-0.016-2.257-0.016-3.351c0-2.762-0.284-2.559,0.628-2.685
			l0.001,5.967L110.555,108.037z M109.584,108.191c0-1.093,0-2.187,0-3.281c0-2.844-0.29-2.588,0.62-2.69l0.009,4.935
			C110.231,108.051,110.401,108.108,109.584,108.191z M136.909,107.614c0.516,0.096,1.08,0.265,1.467,0.453
			c-0.152,0.38-0.682,0.961-1.032,1.111l-0.885-1.043L136.909,107.614z M139.852,109.153c-0.379-0.405-0.613-0.477-0.888-0.984
			l1.429,0.458L139.852,109.153z M107.689,93.382c0.638,0.396,0.61,0.468,0.602,1.433l-0.002,10.32c0,2.709,0.357,3.258-0.624,3.375
			L107.689,93.382z M107.934,110.095c0.93-0.02,7.995-1.199,9.52-1.44c1.61-0.254,3.162-0.493,4.761-0.737
			c3.118-0.475,2.523-0.745,3.923,0.536c-3.094,0.467-5.932,1.103-9.115,1.357c-2.904,0.232-6.14,0.992-9.137,1.333L107.934,110.095
			z M106.701,92.59l0.619,0.438l-0.023,15.55l-0.602,0.079L106.701,92.59z M105.77,91.809l0.593,0.376l-0.001,16.563l-0.628,0.072
			L105.77,91.809z M104.796,90.997l0.597,0.479c0.143,4.73,0.002,10.884,0.01,15.9c0.002,1.736,0.164,1.542-0.628,1.579
			L104.796,90.997z M102.901,103.736l0.58-0.059l0.007,4.717c0.012,0.787,0.142,0.822-0.633,0.885L102.901,103.736z M101.88,103.964
			l0.63-0.119v5.327c-0.166,0.314-0.126,0.238-0.621,0.26L101.88,103.964z M101.559,104.08l0.006,5.399l-0.626,0.123l-0.002-5.443
			L101.559,104.08z M138.647,108.432c0.371,0.438,0.7,0.509,0.964,1.093c-0.216,0.245-0.757,0.785-1.007,0.97l-0.916-1.016
			L138.647,108.432z M140.126,109.468c0.583-0.595,0.402-0.789,1.033-0.695c0.061,0.615,0.079,1.195-0.008,1.808
			c-0.119-0.164-0.355-0.33-0.515-0.51C140.44,109.853,140.3,109.673,140.126,109.468z M135.797,109.171
			c0-0.468,0.178-0.472,0.39-0.745c0.297,0.266,0.642,0.628,1.024,0.968l-1.053,1.1C135.758,109.964,135.797,110.32,135.797,109.171
			z M122.872,109.265c3.347-0.334,3.439-1.092,4.824,0.456l-4.814,0.666L122.872,109.265z M99.008,95.939
			c0-1.371-0.295-3.265,0.597-4.021c0.114,1.074,0.032,7.631,0.032,9.291c0,2.065,0.084,6.14,0.018,8.089
			c-0.024,0.687,0.052,0.532-0.647,0.616C99.008,109.915,99.008,95.939,99.008,95.939z M98.047,96.948
			c0-2.015-0.264-2.421,0.617-3.581c0.146,4.558-0.007,10.411,0.01,15.244c0.006,1.501,0.115,1.41-0.625,1.437L98.047,96.948z
			 M97.084,98.293c0-1.344-0.246-2.619,0.606-3.368c0.2,3.014-0.001,10.065,0.021,13.91c0.01,1.579,0.083,1.299-0.628,1.39V98.293z
			 M96.128,97.733c0-0.642,0.319-0.975,0.622-1.335l0.004,0.439l0.001,13.008l-0.001,0.425l-0.612,0.108l-0.014-0.421V97.733z
			 M95.159,100.537c0-1.469-0.171-1.665,0.613-2.604c0.038,1.719,0.104,11.619-0.043,12.541l-0.57,0.01V100.537z M94.209,110.697
			c0-0.825-0.134-9.956,0.095-10.519c0.101-0.25,0.482-0.673,0.502-0.799c0.098,0.889,0.082,10.898-0.032,11.221L94.209,110.697z
			 M93.24,110.816c-0.013-1.743-0.002-3.49-0.002-5.234c0-1.986-0.294-3.622,0.619-4.624l0.006,7.988
			C93.865,110.868,94.066,110.825,93.24,110.816z M136.469,110.889c0.196-0.446,0.619-0.818,0.898-1.144
			c0.317,0.173,0.83,0.746,1.02,1.118c-0.071,0.061-0.896,0.863-0.954,0.947C137.118,111.473,136.856,111.208,136.469,110.889z
			 M139.822,109.755c0.236,0.16,0.826,0.736,1.01,0.982c-0.139,0.224-0.25,0.34-0.43,0.553c-0.284,0.335-0.282,0.356-0.574,0.509
			l-0.905-1.07L139.822,109.755z M145.013,110.047c0.305,0.209,0.527,0.433,0.7,0.853c-0.336,0.245-0.423,0.335-0.7,0.602
			L145.013,110.047z M148.14,110.757c-0.279,0.558-0.624,0.617-0.949,1.053c-0.313-0.362-0.783-0.651-0.93-1.068l0.334-0.405
			L148.14,110.757z M92.28,111.007c0-1.51,0-3.019,0-4.527c0-1.808-0.277-2.931,0.488-3.82c0.013-0.015,0.053-0.024,0.063-0.065
			c0.009-0.041,0.042-0.044,0.066-0.065l0.011,7.985C92.909,111.075,92.837,110.933,92.28,111.007z M91.319,105.134
			c0-0.429,0.412-0.935,0.625-1.143l0.002,0.47l0.002,6.168l-0.003,0.432l-0.61,0.088l-0.014-0.408L91.319,105.134L91.319,105.134z
			 M122.872,110.73c1.199-0.136,2.373-0.322,3.575-0.49c1.038-0.146,1.771-0.579,2.817,0.778l-6.386,0.834L122.872,110.73z
			 M148.882,110.987l0.626,0.203l-0.029,0.461L148.882,110.987z M117.4,110.093l-0.003,1.083l-9.513,1.321l0.061-1.018
			L117.4,110.093z M90.355,111.31c-0.001-1.05,0-2.099,0-3.148c-0.001-1.236-0.218-1.83,0.621-2.622
			c0.02,0.981,0.128,5.037-0.066,5.707L90.355,111.31z M155.501,112.938c-1.825-0.489-1.024-0.407-1.561-0.702l-1.694-0.552
			c-0.94-0.318-1.031,0.276-2.438-0.493l0.021-0.76c0.845,0.188,11.087,3.419,12.797,4.002c0.516,0.176,0.394,0.091,0.399,0.678
			c-0.617-0.016-1.164-0.318-1.783-0.529c-1.082-0.369-1.737-0.389-2.555-0.691c-0.131-0.049-1.673-0.887-2.4-0.973
			C155.388,112.808,156.495,113.204,155.501,112.938z M89.4,111.462c0-0.876,0.004-1.754-0.002-2.63
			c-0.012-1.619,0.29-0.984,0.625-1.848l-0.014,4.386L89.4,111.462z M88.433,111.586c-0.006-0.563-0.042-1.303-0.002-1.848
			c0.038-0.523,0.305-0.789,0.615-1.195l0.011,3.016L88.433,111.586z M86.932,111.86c0.149-0.336,0.823-1.452,1.164-1.722
			c0.022,1.593,0.141,1.544-0.572,1.663C87.339,111.832,87.136,111.846,86.932,111.86z M141.674,108.992l1.177,0.336l-0.004,2.705
			l-1.179-0.306L141.674,108.992z M102.612,110.978l-0.019,1c-1.562-0.023-5.48,0.885-6.589,0.934l-0.52-0.06
			c-0.79-0.163-1.526,0.115-2.387,0.251c-0.554,0.088-1.448,0.143-1.934,0.397c-0.658,0.344-6.23,1.113-7.251,1.167l-0.002-0.816
			L102.612,110.978z M135.797,111.862c0.001-0.547,0.094-0.508,0.307-0.808c0.448,0.161,0.783,0.626,1.044,1.033
			c-0.145,0.224-0.259,0.34-0.439,0.556c-0.284,0.338-0.196,0.329-0.603,0.476C135.749,112.608,135.797,112.822,135.797,111.862z
			 M137.712,112.087c0.192-0.347,0.62-0.8,1.023-1.011l0.861,1.015l-0.84,1.023C138.334,112.888,137.903,112.431,137.712,112.087z
			 M140.152,112.087c0.096-0.189,0.832-0.951,1.033-1.119l-0.003,2.239c-0.229-0.196-0.314-0.348-0.536-0.57
			C140.337,112.328,140.346,112.471,140.152,112.087z M143.358,109.491l1.181,0.344l-0.007,2.618l-1.178-0.289L143.358,109.491z
			 M145.005,112.087c0.176-0.43-0.027-0.025,0.25-0.318c0.066-0.071,0.138-0.13,0.225-0.224c0.168-0.18,0.266-0.305,0.389-0.489
			c0.493,0.225,0.843,0.702,1.043,1.033c-0.204,0.331-0.551,0.806-1.043,1.032C145.484,112.54,145.121,112.369,145.005,112.087z
			 M147.474,112.087c0.234-0.405,0.528-0.75,1.025-1.015l0.86,1.022l-0.842,1.022C148.003,112.832,147.711,112.49,147.474,112.087z
			 M122.875,112.198c1.463-0.162,2.947-0.384,4.41-0.582c2.219-0.299,2.267-0.697,3.581,0.704l-7.99,0.992L122.875,112.198z
			 M122.175,109.803c0.052,0.39,0.083,1.905,0.041,2.29c-0.051,0.475-0.178,0.388-0.741,0.451c-0.365,0.041-0.601,0.091-0.98,0.056
			l0.03-2.588L122.175,109.803z M149.773,111.577l1.778,0.484l-0.004,0.865l-1.75-0.501L149.773,111.577z M117.411,111.532
			l-0.029,1.071l-9.485,1.251l0.058-1.02L117.411,111.532z M118.082,110.516c0.189-0.304,0.276-0.22,0.727-0.277
			c0.322-0.041,0.645-0.083,0.969-0.114l-0.01,2.623l-1.686,0.196V110.516z M107.232,110.32l-0.003,2.88l-1.637,0.232l0.044-2.838
			L107.232,110.32z M95.488,113.432c0.418-0.262,1.32-0.305,1.825-0.38c1.501-0.222,3.982-0.654,5.304-0.76l-0.038,1.011
			c-0.655-0.028-4.97,0.637-6.22,0.831l-0.869-0.029L95.488,113.432L95.488,113.432z M136.47,113.284
			c0.385-0.32,0.647-0.585,0.961-0.921c0.319,0.448,0.684,0.457,0.955,1.112c-0.511,0.353-0.565,0.699-1.017,0.952
			C137.089,114.099,136.669,113.732,136.47,113.284z M139.852,112.394c0.385,0.185,0.757,0.679,0.979,1.042
			c-0.189,0.248-0.769,0.816-1.024,0.997l-0.894-1.02L139.852,112.394z M145.033,112.671c0.256,0.268,0.344,0.356,0.679,0.601
			c-0.173,0.421-0.394,0.642-0.71,0.853L145.033,112.671z M146.234,113.292c0.293-0.245,0.712-0.645,0.955-0.93
			c0.138,0.178,0.793,0.795,0.962,0.938c-0.187,0.38-0.7,0.96-1.016,1.124L146.234,113.292z M149.507,112.541l0.011,1.712
			c-0.243-0.135-0.119,0.001-0.456-0.389c-0.142-0.165-0.218-0.259-0.385-0.453L149.507,112.541z M103.257,111.189
			c0.115-0.198-0.119-0.192,0.726-0.323c0.313-0.048,0.59-0.094,0.925-0.128l-0.052,2.831l-1.599,0.24
			C103.257,113.81,103.257,111.189,103.257,111.189z M122.872,113.881c0.165-0.294-0.085-0.186,0.516-0.289
			c1.311-0.225,5.88-0.752,7.295-0.916c0.786-0.091,1.241,0.334,1.833,0.973l-9.644,1.128L122.872,113.881z M149.782,112.821
			c0.281,0.025,0.593,0.138,0.893,0.218c1.015,0.272,0.888,0.076,0.861,1.075l-1.772-0.504L149.782,112.821z M155.889,113.479
			c0.092-0.158,0.067,0.639,0.066,0.667l-1.788-0.445v-0.792c0.563,0.117,1.4,0.358,1.649,0.509
			C155.836,113.429,155.876,113.501,155.889,113.479z M117.415,112.959l-0.05,1.069l-9.462,1.181l-0.006-1.011L117.415,112.959z
			 M95.488,114.778c0.211-0.326-0.152-0.076,0.388-0.249c0.391-0.125,6.662-0.912,6.734-0.916l-0.002,0.957l-7.12,0.931
			C95.488,115.501,95.488,114.778,95.488,114.778z M151.876,112.029l0.821,0.316l-0.019,2.396l-0.813-0.198L151.876,112.029z
			 M135.797,114.441c0-0.516,0.136-0.465,0.36-0.763c0.295,0.167,0.826,0.766,1.011,1.134c-0.351,0.313-0.673,0.644-0.979,0.932
			C135.769,115.211,135.797,115.561,135.797,114.441z M138.61,113.683c0.158,0.115,0.835,0.774,0.999,0.965
			c-0.266,0.583-0.595,0.654-0.973,1.101l-0.916-1.083L138.61,113.683z M141.165,113.589l0.031,2.24
			c-0.305-0.186-0.35-0.289-0.589-0.573c-0.178-0.21-0.306-0.377-0.48-0.552L141.165,113.589z M145.005,114.665
			c0.238-0.396-0.049,0.029,0.282-0.277c0.349-0.323,0.432-0.518,0.732-0.709l0.914,1.14c-0.465,0.362-0.601,0.534-0.947,0.923
			C145.514,115.243,145.114,115.035,145.005,114.665z M147.451,114.829c0.206-0.446,0.628-0.845,0.917-1.15
			c0.268,0.182,0.275,0.251,0.502,0.494c0.173,0.185,0.338,0.295,0.503,0.462c-0.204,0.5-0.628,0.726-0.968,1.106
			C148.109,115.445,147.897,115.052,147.451,114.829z M154.171,114.026l1.791,0.451l-0.011,0.769l-1.783-0.413L154.171,114.026z
			 M91.125,113.989c0.001,0.885,0.138,0.879-0.859,0.999c-0.306,0.037-0.595,0.079-0.887,0.119c-1.496,0.209-4.197,0.66-5.458,0.75
			l0.01-0.829L91.125,113.989z M149.777,114.05l1.371,0.31l0.402,0.194l-0.004,0.765l-1.772-0.486L149.777,114.05z M153.035,112.419
			l0.82,0.221l-0.006,2.405l-0.822-0.223L153.035,112.419z M159.28,114.413c0.77,0.211,0.691,0.164,0.686,0.854l-1.587-0.361
			l-0.007-0.727C158.715,114.236,158.958,114.325,159.28,114.413z M122.872,115.339c0.146-0.263-0.019-0.093,0.279-0.223
			l5.709-0.694c0.997-0.119,1.988-0.224,2.978-0.353c0.777-0.101,1.362-0.304,2.325,0.933l-11.292,1.245V115.339z M170.874,116.952
			c-0.782-0.083-3.182-0.948-4.214-1.284c-1.015-0.331-0.958-0.178-1.105-0.569C165.756,115.101,170.387,116.501,170.874,116.952z
			 M117.396,114.355l0.007,1.092l-9.506,1.114l-0.002-1.01L117.396,114.355z M156.263,113.335l0.737,0.232l0.001,2.294l-0.751-0.226
			L156.263,113.335z M94.961,113.433l-0.012,2.33l-1.362,0.115l0.016-2.294L94.961,113.433z M102.602,114.915l-0.002,0.972
			l-7.111,0.878l0.002-0.915L102.602,114.915z M159.447,115.478c0.662,0.181,0.52,0.069,0.518,0.817l-1.592-0.361v-0.713
			C158.763,115.282,159.061,115.373,159.447,115.478z M93.022,113.685l-0.001,2.357l-1.361,0.15l-0.007-2.31L93.022,113.685z
			 M154.168,115.167c0.362,0.07,0.641,0.151,0.987,0.236c0.907,0.223,0.817,0.174,0.786,0.952l-1.763-0.455L154.168,115.167z
			 M157.325,113.697l0.754,0.259l0.001,2.184l-0.75-0.155L157.325,113.697z M163.024,116.088c-0.166-0.01-0.372-0.03-0.528-0.077
			c-0.451-0.133-0.146,0.082-0.323-0.223l0.002-0.494l0.832,0.216L163.024,116.088z M91.126,115.22c0,0.886,0.138,0.884-0.862,0.997
			c-1.612,0.182-5.22,0.808-6.351,0.723l-0.002-0.724L91.126,115.22z M137.338,114.99c0.409,0.178,0.667,0.573,1.029,1.021
			c-0.209,0.349-0.491,0.714-0.871,0.937c-0.542-0.163-0.831-0.602-1.021-0.952L137.338,114.99z M138.923,116.164
			c0.124-0.488,0.587-0.937,1.015-1.139l0.873,0.987c-0.249,0.334-0.495,0.747-0.959,0.948
			C139.473,116.709,139.357,116.465,138.923,116.164z M145.006,115.293c0.273,0.161,0.169,0.069,0.396,0.327
			c0.143,0.163,0.181,0.223,0.287,0.391c-0.16,0.332-0.297,0.469-0.669,0.739L145.006,115.293z M147.099,114.989
			c0.464,0.189,0.74,0.646,1.031,1.022c-0.66,1.173-1.214,1.23-1.887-0.011L147.099,114.989z M148.695,116.011
			c0.212-0.344,0.392-0.584,0.817-0.849l-0.024,1.713C149.215,116.618,148.854,116.353,148.695,116.011z M149.782,115.256
			l1.77,0.376l-0.004,0.884l-1.782-0.437L149.782,115.256z M122.872,116.796c0.144-0.251,0.052-0.147,0.371-0.244
			c0.007-0.002,0.353-0.046,0.389-0.049c1.704-0.164,10.504-1.303,11.023-1.132c0.429,0.142,0.85,0.529,0.857,0.978
			c-0.622,0.247-5.148,0.603-6.089,0.619l-5.046,0.002c-0.253,0-0.546,0.017-0.79,0.012
			C123.212,116.972,123.076,116.958,122.872,116.796z M160.229,114.633l0.624,0.216c0.171,0.514,0.071,1.417,0.071,2.056
			c-0.429-0.065-0.512-0.047-0.699-0.333L160.229,114.633z M164.419,116.816c-0.324,0.156-0.252,0.155-0.559-0.02
			c0.029-0.178,0.118-0.317,0.295-0.289C164.458,116.556,164.328,116.602,164.419,116.816z M88.11,116.941
			c0.37-0.23,1.036-0.244,1.577-0.317l1.162-0.142c0.199,0.016,0.202,0.055,0.277,0.09c-0.078,0.573,0.317,0.396-1.399,0.395
			C89.18,116.967,88.657,116.973,88.11,116.941z M97.752,116.942c0.403-0.25,3.825-0.642,4.858-0.699v0.724L97.752,116.942z
			 M117.409,115.795l-0.019,1.096c-3.144,0.075-6.284,0.101-9.45,0.024L117.409,115.795z M141.193,116.213l0.005,0.759l-0.68-0.057
			L141.193,116.213z M151.893,114.816l0.801,0.161v1.991h-0.619l-0.213-0.025L151.893,114.816z M155.958,116.796
			c-0.207,0.151,0.183,0.083-0.399,0.178l-1.39-0.007v-0.665c0.362,0.065,0.642,0.14,0.989,0.219l0.716,0.221
			C155.889,116.717,155.93,116.778,155.958,116.796z M159.968,116.796c-0.267,0.214,0.256,0.07-0.374,0.178l-1.225-0.05l0.013-0.662
			c0.285,0.037,0.599,0.137,0.866,0.199C159.636,116.552,159.762,116.494,159.968,116.796z M162.199,116.268
			c0.344,0.081,0.585,0.118,0.831,0.305l-0.041,0.394l-0.815-0.055L162.199,116.268z M91.717,116.54
			c0.345-0.115,0.948-0.245,1.303-0.08c0.003,0.343,0.034,0.267-0.074,0.511l-1.271-0.015L91.717,116.54z M94.948,116.086
			l-0.024,0.879l-1.321-0.023l-0.011-0.679L94.948,116.086z M103.257,114.329c0.284-0.355,1.167-0.335,1.647-0.393
			c0,0.766,0.11,2.379-0.071,3.032h-1.504C103.153,116.338,103.257,115.044,103.257,114.329z M105.594,113.993
			c0.216-0.305,0.311-0.235,0.757-0.299c0.307-0.044,0.556-0.087,0.887-0.124l-0.064,3.399h-1.501
			C105.475,116.326,105.594,114.751,105.594,113.993z M119.779,113.098l-0.053,3.87l-1.634,0.001l-0.009-3.694L119.779,113.098z
			 M122.206,112.818l-0.034,4.148l-1.67-0.022l-0.003-3.942L122.206,112.818z M135.86,116.969c-0.083-0.505-0.028-0.242,0.292-0.624
			c0.192,0.099,0.501,0.331,0.637,0.624L135.86,116.969z M138.082,116.969c0.173-0.309,0.329-0.496,0.695-0.665
			c0.172,0.281,0.298,0.358,0.463,0.663L138.082,116.969z M141.674,112.025l1.183,0.309l-0.044,4.631l-1.141-0.007L141.674,112.025z
			 M143.374,112.444l1.164,0.315l-0.042,4.206l-1.142-0.009L143.374,112.444z M145.388,116.966c0.166-0.349,0.272-0.467,0.631-0.627
			l0.529,0.63L145.388,116.966z M147.842,116.969c0.185-0.306,0.331-0.484,0.7-0.668c0.179,0.286,0.306,0.345,0.459,0.667
			L147.842,116.969z M150.736,116.682c1.01,0.216,0.668,0.093,0.745,0.29l-1.695-0.028l-0.008-0.428
			C150.104,116.521,150.41,116.612,150.736,116.682z M153.03,115.125l0.756,0.173c0.127,0.392,0.113,1.168,0.022,1.67l-0.777-0.029
			L153.03,115.125z M156.252,115.89l0.763,0.189l-0.061,0.89l-0.69-0.013L156.252,115.89z M157.324,116.186l0.758,0.225
			l-0.027,0.546l-0.7,0.015L157.324,116.186z M161.214,114.987l0.691,0.192l-0.033,1.783l-0.66-0.019L161.214,114.987z
			 M51.566,124.87c-0.002-1.579,0.07-3.145,0.16-4.713c0.166-2.87-0.256-2.33,2.451-2.33H188.52c2.971,0,6.6-0.187,9.491,0.019
			c0.293,2.146,0.355,4.64,0.357,6.688c0.008,8.304-1.162,15.833-3.698,23.533c-0.334,1.013-2.005,5.928-2.562,6.345H58.216
			l-0.557-0.023c-0.349-1.062-0.872-2.131-1.29-3.224C53.167,142.796,51.577,133.968,51.566,124.87z M58.117,155.279l22.311-0.007
			c0.432,0.778,1.204,1.69,1.777,2.463c0.601,0.809,1.222,1.587,1.919,2.342l1.005,1.124c0.358,0.412,0.624,0.737,0.996,1.14
			l1.056,1.073c2.496,2.652,7.971,6.526,10.922,8.255c7.928,4.647,17.399,7.177,26.949,7.163c12.271-0.017,23.249-4.125,32.035-10.6
			c1.474-1.086,2.224-1.74,3.512-2.876l1.112-1.02c2.893-2.867,3.475-3.324,6.098-6.688c0.315-0.404,1.517-2.235,1.873-2.375
			l22.153,0.001c-1.715,3.569-2.601,5.472-4.755,8.86c-0.921,1.452-1.784,2.732-2.771,4.068c-1.665,2.256-2.78,3.615-4.593,5.728
			l-1.664,1.812c-1.037,0.948-1.819,1.86-2.522,2.52c-5.04,4.732-10.941,8.924-17.162,12.112c-3.08,1.578-6.22,2.922-9.676,4.113
			c-15.146,5.22-32.159,5.198-47.328,0.045c-8.477-2.879-15.801-7.057-22.175-12.14c-0.682-0.544-1.236-0.998-1.844-1.522
			c-0.665-0.574-1.21-1.093-1.852-1.624c-0.335-0.277-0.523-0.547-0.842-0.836c-0.326-0.296-0.561-0.502-0.881-0.804
			c-1.186-1.121-2.318-2.337-3.393-3.562l-0.794-0.886c-0.153-0.187-0.269-0.274-0.43-0.462l-1.907-2.357
			c-3.082-3.88-5.809-8.214-8.035-12.712C58.852,156.905,58.351,156.027,58.117,155.279z M98.046,162.553
			c-0.42-0.419-0.848-0.556-1.137-1.132c-0.268-0.531-0.366-1.287-0.183-1.969c0.289-1.077,1.298-1.756,2.645-1.73
			c2.366,0.046,3.14,2.262,2.307,3.768c-0.229,0.415-0.527,0.611-0.837,0.851c-0.204,0.158-0.091,0.039-0.266,0.224
			c2.651,0.88,2.718,6.185-1.317,6.147C95.238,168.674,95.531,163.278,98.046,162.553z M124.66,168.044
			c0.544,0.232,0.316-0.196,0.489,0.336c-0.3,0.196-0.54,0.119-1.108,0.115c-0.409-0.002-0.811,0.003-1.222-0.016
			c0-1.114,0.138-5.251-0.072-5.973c-0.44-0.449-0.763-0.238-1.159,0.086c0,0.577-0.102,5.283,0.075,5.385
			c0.523,0.299,0.372,0.067,0.434,0.403c-0.413,0.283-2.267,0.113-2.917,0.113v-0.388c0.509-0.001,0.415,0.117,0.583-0.174v-5.719
			l-0.161-0.059c-0.465-0.203-0.305-0.05-0.423-0.278c0.235-0.287,0.589-0.181,1.045-0.174c0.412,0.006,0.824,0.002,1.276-0.012
			l0.165,0.385c0.943-0.829,1.898-0.768,2.822,0.021c0.59-0.212,0.975-0.75,2.015-0.566c0.728,0.129,1.104,0.623,1.182,1.389
			c0.142,1.405,0.017,3.532,0.017,5.013l0.418,0.212c0.189,0.143,0.056-0.254,0.158,0.236c-0.435,0.29-1.797,0.157-2.409,0.077
			c0-0.96,0.195-5.54-0.154-5.996c-0.154-0.157-0.137-0.244-0.497-0.189c-0.181,0.027-0.428,0.182-0.566,0.237L124.66,168.044z
			 M133.573,161.989c1.208-0.908,2.832-0.624,2.907,1.116c0.034,0.786-0.059,4.63,0.054,5h0.531v0.388h-2.422
			c0-1.295,0.181-5.349-0.146-6.182c-0.461-0.084-0.725,0.048-1.072,0.225l-0.005,5.395l0.254,0.14
			c0.334,0.247,0.222,0.161,0.247,0.422c-0.673,0-2.487,0.167-2.91-0.113c0.087-0.412,0.017-0.274,0.575-0.276v-6.008
			c-0.619-0.005-0.546,0.125-0.554-0.332c0.377-0.146,0.98-0.058,1.42-0.063c1.077-0.012,0.822,0.02,1.013,0.169L133.573,161.989z
			 M148.068,162.573c-0.121,0.805-0.044,2.14-0.044,3.003c0,2.353-0.277,2.521,0.513,2.529l0.001,0.388h-2.341
			c0-1.267,0.176-5.39-0.146-6.184c-0.46-0.08-0.738,0.041-1.074,0.218l-0.003,5.404l0.173,0.093
			c0.022,0.014,0.056,0.03,0.079,0.047c0.337,0.25,0.223,0.16,0.251,0.422c-0.669,0-2.491,0.168-2.911-0.113
			c0.086-0.412,0.017-0.273,0.575-0.276v-6.008c-0.61-0.006-0.546,0.124-0.554-0.332c0.286-0.112,2.042-0.079,2.166-0.047
			c0.422,0.106,0.199,0.484,0.317,0.214c0.008-0.02,0.031,0.044,0.051,0.063c0.376-0.266,0.835-0.508,1.459-0.496
			c0.95,0.018,1.249,0.621,1.281,0.555c0.01-0.019,0.041,0.034,0.064,0.048c1.066-0.792,2.936-1.061,3.134,0.786
			c0.149,1.398,0.021,3.566,0.021,5.045c0.169,0.291,0.074,0.173,0.584,0.174v0.388h-2.405c0-1.182,0.249-5.423-0.161-6.107
			C148.647,162.111,148.423,162.292,148.068,162.573z M106.812,163.966c-0.115,0.253-1.817,1.349-2.951,0.035
			c-1.011-1.17-1.226-4.829,0.952-5.99c1.13-0.602,2.465-0.223,3.076,0.505c1.633,1.947,1.727,7.989-0.563,9.745
			c-1.113,0.854-2.119,0.425-3.133-0.095c-0.589,0.187,0.129-0.002-0.326,0.221c-0.209,0.103-0.01,0.079-0.349,0.094
			c-0.028-0.669-0.012-1.339-0.012-2.009c0-0.341-0.005-0.678-0.01-1.019c-0.011-0.868,0.091-0.714,0.248-0.773
			c0.342,0.159,0.161-0.047,0.237,0.547c0.122,0.952,0.617,3.018,1.783,3.03C107.145,168.275,106.984,165.171,106.812,163.966z
			 M112.718,157.8c2.524-0.727,3.5,2.634,3.61,4.86c0.116,2.363-0.683,5.536-2.554,5.991
			C109.537,169.681,108.859,158.913,112.718,157.8z M138.398,166.672c1.256-0.731,2.27,1.269,0.987,1.918
			C138.115,169.232,137.062,167.449,138.398,166.672z M152.991,166.684c1.402-0.726,2.177,1.356,0.982,1.916
			c-0.597,0.278-1.255-0.026-1.469-0.426c-0.157-0.294-0.18-0.619-0.052-0.975C152.58,166.851,152.718,166.825,152.991,166.684z"/>
	</g>
</g>
</svg>
